<?xml version="1.0" standalone="no"?>
<!DOCTYPE svg PUBLIC "-//W3C//DTD SVG 20010904//EN"
 "http://www.w3.org/TR/2001/REC-SVG-20010904/DTD/svg10.dtd">
<svg version="1.0" xmlns="http://www.w3.org/2000/svg"
 width="640.000000pt" height="640.000000pt" viewBox="0 0 640.000000 640.000000"
 preserveAspectRatio="xMidYMid meet">
<metadata>
Created by potrace 1.11, written by Peter Selinger 2001-2013
</metadata>
<g transform="translate(0.000000,640.000000) scale(0.100000,-0.100000)"
fill="#000000" stroke="none">
<path d="M0 3200 l0 -3200 1850 0 1850 0 -58 77 c-32 43 -105 146 -162 228
-57 83 -132 187 -167 232 -35 46 -109 142 -164 215 -55 73 -112 149 -127 168
-15 19 -72 80 -127 135 -74 74 -119 111 -175 140 -41 22 -81 39 -87 39 -7 -1
-13 5 -13 13 0 8 -4 11 -10 8 -5 -3 -15 5 -21 19 -7 14 -18 27 -26 30 -7 3
-63 45 -123 93 -63 50 -131 95 -158 105 -35 13 -41 17 -22 18 25 1 25 1 -5 17
-33 17 -75 60 -75 77 0 6 4 5 9 -3 7 -11 11 -10 20 5 10 17 13 17 23 4 7 -8
28 -16 47 -18 30 -3 33 -1 28 18 -4 16 0 23 16 29 19 7 16 9 -19 15 -37 7 -41
10 -36 32 4 20 9 24 26 20 49 -14 96 -18 96 -9 0 5 -11 20 -25 33 -36 34 -49
87 -29 118 17 26 13 38 -11 29 -8 -4 -15 -16 -15 -27 0 -25 -25 -27 -34 -2 -3
9 -9 22 -12 29 -8 17 59 48 139 64 l68 13 24 -26 c37 -40 86 -75 151 -108 33
-17 73 -39 89 -49 42 -27 64 -27 40 -1 -10 11 -26 20 -37 20 -12 0 -18 7 -18
21 0 13 -4 18 -12 13 -18 -11 -39 25 -27 47 5 11 6 20 2 20 -4 1 -15 2 -23 3
-17 1 -27 56 -11 56 6 0 11 9 11 20 0 11 4 20 10 20 5 0 8 20 7 45 -1 25 -7
45 -12 45 -6 0 -9 -17 -7 -39 3 -33 -1 -44 -26 -71 -32 -33 -58 -24 -28 9 9
10 13 20 10 24 -4 4 1 18 10 32 9 14 14 30 11 35 -3 5 -1 19 5 30 8 15 8 18
-3 14 -15 -5 -31 22 -22 36 3 5 1 11 -3 14 -16 9 0 58 19 63 23 6 25 23 3 23
-8 0 -13 4 -9 10 3 5 12 7 20 3 9 -3 22 0 30 7 8 7 21 10 30 7 8 -4 17 -2 20
3 4 6 -5 10 -19 10 -13 0 -26 5 -28 12 -8 22 4 68 18 68 8 0 14 5 14 11 0 5 6
7 13 4 6 -4 4 0 -5 8 -18 14 -24 37 -10 37 4 0 13 -9 20 -20 8 -13 23 -20 41
-20 16 0 31 -5 33 -12 7 -20 38 0 38 25 0 13 11 33 25 45 24 21 25 21 25 2 0
-11 5 -20 10 -20 11 0 7 96 -4 107 -12 12 36 63 59 63 25 0 41 25 22 37 -7 4
-22 6 -34 4 -17 -2 -21 1 -17 13 4 9 1 16 -6 16 -9 0 -11 13 -8 44 5 45 5 45
-23 39 -24 -5 -30 -1 -39 21 -5 14 -14 26 -20 26 -5 0 -10 7 -10 15 0 9 -12
21 -27 27 l-28 12 25 3 c51 8 55 12 31 36 -24 26 -27 44 -8 50 6 2 2 2 -10 1
-12 -2 -25 0 -28 6 -3 5 3 10 13 10 11 0 27 11 36 25 15 23 15 25 -4 35 -17 9
-20 8 -20 -10 0 -11 -4 -20 -10 -20 -5 0 -7 7 -4 15 4 9 0 15 -7 15 -11 0 -11
3 1 10 8 5 10 10 4 10 -7 0 -15 7 -18 16 -5 13 1 14 39 8 35 -5 45 -3 45 8 0
14 -52 38 -83 38 -18 0 -23 25 -7 35 15 9 12 25 -5 25 -18 0 -20 16 -2 23 23
8 47 -7 37 -23 -14 -22 -12 -26 10 -27 21 -2 27 11 10 22 -6 4 -8 11 -4 16 7
12 -24 49 -41 49 -17 0 -24 78 -9 98 14 19 7 42 -13 42 -8 0 -12 4 -9 9 5 7
-22 18 -91 36 -12 3 -24 1 -28 -5 -3 -5 -11 -10 -16 -10 -6 0 -3 7 5 16 9 8
22 14 29 11 6 -2 25 2 40 10 l28 14 -23 24 c-13 14 -28 25 -35 25 -20 0 -87
34 -96 48 -4 6 -15 12 -22 12 -8 0 -15 5 -15 10 0 6 6 10 13 10 7 0 23 7 36
17 23 15 23 17 6 30 -11 7 -38 13 -61 13 -28 0 -44 5 -48 15 -3 8 -16 15 -30
15 -14 0 -27 4 -31 9 -6 11 23 8 118 -12 37 -8 70 -11 73 -6 3 5 2 10 -3 11
-4 0 -12 2 -18 3 -5 1 -28 10 -50 20 l-40 19 43 4 c48 4 58 22 12 22 -16 0
-30 4 -30 9 0 5 -11 12 -25 15 -35 9 -31 26 6 26 49 0 70 16 63 47 -6 23 -5
25 12 18 55 -23 99 -36 113 -32 9 2 -12 12 -46 22 -35 11 -63 22 -63 25 0 3
-20 4 -44 2 -37 -3 -46 0 -56 18 -10 19 -9 21 7 20 39 -5 44 -1 31 20 -7 11
-18 20 -25 20 -7 0 -13 7 -13 15 0 8 -4 15 -9 15 -4 0 -6 11 -3 25 4 24 32 36
32 15 0 -15 22 -12 48 6 17 12 20 19 12 34 -7 13 -7 21 0 25 5 3 10 1 10 -4 0
-6 5 -11 11 -11 5 0 7 5 4 10 -4 6 -2 17 5 25 7 9 8 15 0 20 -5 3 -10 3 -10
-2 0 -4 -5 -1 -10 7 -5 8 -15 15 -22 15 -18 0 -23 36 -6 46 7 5 21 6 30 3 10
-3 26 4 37 15 17 17 19 25 11 46 -13 35 -13 34 13 45 l22 9 -23 0 c-14 1 -20
5 -17 12 5 7 14 6 28 -4 28 -17 85 -14 105 7 11 10 12 16 4 16 -7 0 -12 -4
-12 -10 0 -5 -10 -10 -22 -10 l-23 1 24 19 c13 11 29 20 37 20 8 0 14 5 14 10
0 6 -7 10 -15 10 -8 0 -15 5 -15 11 0 7 12 8 33 4 30 -7 31 -6 16 10 -22 22
-13 65 13 65 15 0 19 -5 14 -17 -6 -17 -5 -17 8 0 7 9 20 16 27 14 8 -2 11 -2
7 0 -5 3 -8 14 -8 25 0 16 -5 19 -23 14 -20 -5 -22 -2 -23 37 -1 33 0 37 7 20
5 -13 16 -23 26 -23 15 0 16 2 3 10 -12 8 -10 10 10 10 25 1 25 1 3 10 -39 16
-28 47 24 74 22 11 34 13 39 5 4 -6 20 -8 40 -5 47 9 104 -16 97 -43 -4 -16
-1 -19 15 -14 11 2 30 -1 42 -7 17 -9 24 -9 30 0 4 6 16 10 26 8 12 -2 18 2
16 11 -4 19 18 42 37 37 50 -14 83 -17 77 -8 -10 16 11 24 32 13 11 -6 22 -7
26 -4 4 4 19 9 34 11 15 2 35 10 44 19 13 12 21 13 31 4 19 -15 78 -20 99 -8
24 16 58 -17 58 -56 l0 -30 -21 27 c-20 25 -22 26 -35 9 -13 -17 -13 -17 -14
0 0 24 -42 22 -58 -4 -12 -18 -10 -21 17 -32 17 -6 31 -15 31 -20 0 -4 -4 -5
-10 -2 -19 12 -10 -35 10 -52 11 -10 20 -22 20 -29 0 -6 11 -16 25 -22 14 -6
25 -16 25 -22 0 -5 6 -10 14 -10 8 0 18 -9 21 -20 3 -11 12 -20 19 -20 7 0 26
-11 42 -25 29 -25 56 -27 104 -7 18 7 28 7 35 -2 8 -10 17 -10 45 0 19 7 45
13 58 13 14 1 20 5 17 12 -4 6 -13 8 -21 5 -27 -10 -163 62 -209 110 -89 94
-90 96 -91 159 -2 69 -17 132 -47 194 l-21 43 22 19 c13 10 18 20 12 24 -13 8
-30 -3 -30 -20 0 -14 -62 -39 -92 -37 -9 0 -18 -8 -21 -19 -3 -10 -13 -19 -22
-19 -9 0 -27 -11 -41 -25 -20 -20 -29 -23 -39 -15 -9 7 -23 9 -37 4 -28 -10
-34 -11 -53 -13 -8 0 -25 -12 -37 -27 -16 -18 -29 -23 -45 -19 -12 3 -25 0
-28 -6 -4 -6 -14 -8 -22 -5 -8 3 -12 2 -9 -3 3 -4 -3 -16 -14 -26 -17 -16 -20
-16 -20 -2 0 8 6 18 13 21 6 3 -1 3 -18 -1 -16 -3 -41 -11 -55 -18 -37 -18
-80 -27 -80 -16 0 5 14 14 32 22 17 7 26 15 19 17 -6 2 -18 -1 -25 -8 -10 -7
-16 -8 -20 -1 -5 7 -15 7 -32 1 -33 -13 -34 -13 -34 6 0 8 -4 13 -9 9 -5 -3
-12 -1 -16 4 -3 5 1 13 8 18 7 4 16 16 20 26 3 9 13 17 22 17 9 0 26 10 38 23
12 13 30 26 40 30 20 7 23 27 5 27 -7 0 0 11 17 24 17 14 33 20 36 14 6 -10
49 72 49 94 0 12 16 65 31 103 24 62 27 84 15 100 -11 15 -19 10 -73 -49 -33
-36 -68 -66 -77 -66 -9 0 -26 -10 -37 -21 -17 -17 -23 -19 -30 -8 -5 8 -7 29
-4 47 3 17 2 32 -4 32 -5 0 -12 -27 -16 -60 -8 -71 -29 -81 -32 -15 -2 34 2
45 12 45 8 0 15 7 15 15 0 9 -6 12 -15 9 -12 -5 -15 3 -15 43 0 54 -12 73 -48
73 -17 0 -26 -8 -33 -30 -6 -16 -15 -30 -21 -30 -5 0 -6 -5 -3 -11 4 -5 0 -24
-8 -42 -21 -46 -29 -147 -12 -147 8 0 26 -15 42 -34 15 -18 39 -36 53 -39 45
-12 54 -22 39 -46 -8 -11 -29 -28 -47 -37 -31 -15 -34 -14 -46 2 -9 12 -15 14
-20 5 -4 -6 -18 -8 -31 -5 -13 3 -32 1 -43 -5 -24 -13 -45 7 -40 35 2 11 -4
20 -13 22 -12 2 -16 -4 -16 -23 -1 -15 -6 -32 -12 -38 -17 -16 -65 41 -54 63
4 8 8 52 9 97 2 97 9 133 29 133 14 0 20 21 29 118 6 64 62 240 110 345 20 43
36 84 36 91 0 7 10 26 23 42 24 31 45 81 53 129 l6 30 -22 -25 c-26 -29 -60
-94 -60 -113 0 -16 -115 -245 -134 -267 -8 -8 -45 -80 -84 -160 -39 -80 -84
-167 -101 -195 -64 -107 -84 -151 -88 -195 -3 -25 -18 -68 -34 -96 -16 -29
-34 -76 -39 -105 -6 -30 -12 -63 -14 -74 -2 -11 -9 -54 -17 -95 -10 -59 -19
-83 -46 -114 -18 -22 -33 -46 -33 -54 0 -7 -20 -45 -45 -83 -25 -38 -45 -81
-45 -94 0 -14 -4 -25 -9 -25 -5 0 -17 -26 -26 -57 -10 -32 -25 -69 -33 -83 -9
-14 -19 -43 -23 -65 -4 -22 -14 -60 -23 -85 -8 -25 -21 -65 -27 -90 -7 -25
-17 -50 -21 -57 -5 -6 -8 -17 -7 -25 1 -7 -2 -24 -8 -38 -22 -50 -27 -66 -29
-100 -8 -123 -11 -142 -23 -150 -8 -4 -11 -15 -7 -25 11 -30 -5 -62 -40 -78
-19 -10 -40 -17 -47 -17 -7 0 -23 -10 -37 -23 -14 -13 -32 -26 -40 -29 -8 -3
-48 -31 -89 -62 -41 -31 -78 -56 -81 -56 -4 0 -20 -18 -35 -40 -15 -22 -34
-40 -42 -40 -8 0 -17 -9 -20 -20 -6 -21 -49 -54 -56 -42 -2 4 -2 1 -1 -6 5
-19 -75 -97 -87 -85 -7 7 0 20 21 41 26 26 29 35 20 52 -6 11 -15 20 -21 20
-6 0 2 11 18 24 27 24 28 24 9 45 -17 19 -17 21 -3 21 33 0 16 30 -30 54 l-48
25 46 1 46 0 0 120 c0 119 -1 120 -24 120 -20 0 -23 -5 -23 -40 l0 -40 -40 0
-40 0 0 40 c0 33 3 40 20 40 17 0 20 7 20 40 0 28 4 40 14 40 13 0 13 5 0 35
-8 20 -12 40 -8 46 3 6 -2 17 -12 25 -18 14 -18 14 1 29 17 14 18 17 5 25 -8
5 -21 10 -27 10 -16 0 -17 22 -2 37 7 7 -5 9 -40 5 -42 -4 -51 -2 -51 12 0 9
7 16 16 16 14 0 16 7 11 40 -4 30 -2 40 9 40 8 0 14 -10 14 -24 0 -37 10 -56
31 -56 16 0 19 8 19 49 0 59 -9 89 -21 70 -6 -10 -10 -10 -22 0 -12 9 -14 25
-10 67 4 37 2 54 -6 54 -6 0 -11 -17 -11 -40 0 -29 -4 -40 -15 -40 -19 0 -21
76 -3 83 8 2 9 8 4 13 -5 5 -11 4 -13 -3 -3 -8 -24 -13 -57 -13 l-53 0 -7 61
c-9 93 -8 99 14 99 17 0 20 -7 20 -40 0 -33 3 -40 20 -40 18 0 20 7 20 80 l0
80 -36 0 c-25 0 -35 4 -31 13 21 49 34 67 50 67 13 0 17 9 17 40 0 33 -3 40
-20 40 -17 0 -20 -7 -20 -40 l0 -40 -40 0 -40 0 0 40 c0 35 3 40 23 40 14 0
26 9 32 23 8 18 19 23 58 25 45 3 47 2 47 -22 0 -15 5 -26 10 -26 6 0 10 18
10 40 0 32 -4 40 -19 40 -15 0 -19 10 -24 53 -3 36 -1 57 9 68 21 24 17 39
-11 39 -22 0 -25 4 -25 40 0 54 -20 51 -22 -2 l-1 -43 -7 45 -7 45 -1 -42 c-2
-31 -6 -43 -17 -43 -11 0 -15 11 -15 40 0 22 5 40 10 40 6 0 10 18 10 40 0 22
5 40 10 40 6 0 10 18 10 40 l0 40 40 0 c38 0 40 2 40 30 0 28 2 30 40 30 22 0
40 5 40 10 0 6 -20 10 -44 10 l-44 0 5 63 c3 34 11 65 17 69 12 8 14 19 22
121 4 47 10 67 19 67 9 0 15 -15 18 -42 l4 -43 1 46 c1 29 -3 51 -12 58 -20
16 -28 82 -19 159 l7 67 12 -85 c8 -61 12 -73 13 -42 1 35 4 42 21 42 23 0 23
3 11 48 -6 20 -6 32 0 32 5 0 9 18 9 40 0 33 3 40 20 40 17 0 20 -7 20 -40 0
-33 3 -40 20 -40 23 0 26 20 6 58 -7 15 -16 48 -18 75 l-6 47 39 0 c22 0 39
-4 39 -10 0 -19 17 -10 28 15 15 33 15 80 1 108 -9 16 -9 22 0 25 6 2 11 21
11 43 0 21 5 39 10 39 6 0 10 18 10 40 0 23 5 40 11 40 8 0 9 -24 4 -80 -5
-56 -4 -80 4 -80 6 0 11 -17 11 -40 0 -23 5 -40 11 -40 8 0 10 17 6 54 -4 41
-2 58 9 67 8 6 14 18 14 25 0 8 7 14 15 14 8 0 15 -4 15 -10 0 -5 7 -10 15
-10 20 0 20 39 0 46 -9 4 -15 19 -15 40 0 33 1 34 40 34 38 0 40 2 40 30 0 29
2 30 45 30 l45 0 0 40 c0 38 2 40 30 40 28 0 30 -2 30 -40 0 -22 5 -40 10 -40
6 0 10 -18 10 -40 0 -69 17 -43 25 37 5 54 4 78 -4 81 -6 2 -11 16 -11 32 0
16 -6 30 -12 33 -8 2 -9 8 -4 13 5 5 11 4 13 -3 3 -7 18 -13 34 -13 22 0 29 5
29 19 0 15 10 19 52 23 31 3 56 12 63 22 7 9 20 16 29 16 9 0 16 5 16 10 0 6
5 10 10 10 6 0 24 15 40 33 l29 32 1 -45 c1 -25 4 -39 7 -32 2 6 11 12 19 12
10 0 14 12 14 40 l0 40 -1060 0 -1060 0 0 -3200z m1676 3123 c-10 -10 -19 5
-10 18 6 11 8 11 12 0 2 -7 1 -15 -2 -18z m279 -13 c-3 -5 -13 -10 -21 -10 -8
0 -14 5 -14 10 0 6 9 10 21 10 11 0 17 -4 14 -10z m-275 -55 c0 -8 -4 -15 -10
-15 -5 0 -7 7 -4 15 4 8 8 15 10 15 2 0 4 -7 4 -15z m-324 -252 c-10 -10 -19
5 -10 18 6 11 8 11 12 0 2 -7 1 -15 -2 -18z m4 -148 c0 -8 -4 -15 -10 -15 -5
0 -7 7 -4 15 4 8 8 15 10 15 2 0 4 -7 4 -15z m-215 -265 c-3 -5 -10 -10 -16
-10 -5 0 -9 5 -9 10 0 6 7 10 16 10 8 0 12 -4 9 -10z m-35 -470 c0 -64 -3 -80
-15 -80 -12 0 -15 16 -15 80 0 64 3 80 15 80 12 0 15 -16 15 -80z m-60 -145
c0 -8 -7 -15 -15 -15 -9 0 -12 6 -9 15 4 8 10 15 15 15 5 0 9 -7 9 -15z m2180
-265 c0 -5 -4 -10 -10 -10 -5 0 -10 5 -10 10 0 6 5 10 10 10 6 0 10 -4 10 -10z
m-632 -43 c3 -15 -2 -18 -25 -15 -17 2 -29 10 -31 21 -3 15 2 18 25 15 17 -2
29 -10 31 -21z m522 -47 c0 -5 -5 -10 -11 -10 -5 0 -7 5 -4 10 3 6 8 10 11 10
2 0 4 -4 4 -10z m450 -41 c0 -7 12 -23 26 -36 14 -13 24 -26 21 -29 -9 -9 -47
16 -47 31 0 8 -4 15 -10 15 -5 0 -10 7 -10 15 0 8 5 15 10 15 6 0 10 -5 10
-11z m-2530 -59 c0 -33 -3 -40 -20 -40 -17 0 -20 7 -20 40 0 33 3 40 20 40 17
0 20 -7 20 -40z m40 0 c0 -22 -4 -40 -10 -40 -5 0 -10 18 -10 40 0 22 5 40 10
40 6 0 10 -18 10 -40z m2553 33 c-7 -2 -19 -2 -25 0 -7 3 -2 5 12 5 14 0 19
-2 13 -5z m-909 -94 c-3 -5 -10 -7 -15 -3 -5 3 -7 10 -3 15 3 5 10 7 15 3 5
-3 7 -10 3 -15z m-244 -228 c0 -5 -7 -11 -15 -15 -9 -3 -15 0 -15 9 0 8 7 15
15 15 8 0 15 -4 15 -9z m-235 -281 c3 -5 1 -10 -4 -10 -6 0 -11 5 -11 10 0 6
2 10 4 10 3 0 8 -4 11 -10z m190 -60 c3 -5 1 -10 -4 -10 -6 0 -11 5 -11 10 0
6 2 10 4 10 3 0 8 -4 11 -10z m69 -266 c24 -9 19 -24 -8 -24 -28 0 -43 16 -24
23 7 3 14 6 15 6 1 1 8 -2 17 -5z m-204 -46 c0 -16 -40 -7 -50 11 -9 18 -8 18
20 8 17 -6 30 -15 30 -19z m80 -43 c7 -8 9 -16 4 -16 -10 -1 54 -17 100 -24
37 -6 44 -14 26 -26 -13 -8 -13 -11 2 -22 25 -20 12 -57 -19 -57 -22 0 -24 3
-19 25 4 17 2 25 -7 25 -23 0 -67 25 -67 38 0 6 -6 12 -14 12 -7 0 -16 8 -20
18 -3 9 -9 23 -12 30 -8 17 11 15 26 -3z m-1180 -42 c-1 -27 -1 -27 -15 -9
-19 25 -19 36 0 36 10 0 15 -10 15 -27z m1140 -93 c0 -5 -7 -10 -15 -10 -8 0
-15 5 -15 10 0 6 7 10 15 10 8 0 15 -4 15 -10z m57 -47 c3 -7 -3 -9 -17 -6
-29 8 -37 25 -9 21 12 -1 24 -8 26 -15z m43 -53 c0 -5 -4 -10 -9 -10 -5 0 -17
-3 -25 -6 -12 -5 -15 -2 -10 10 7 17 44 22 44 6z m295 -50 c3 -5 1 -10 -4 -10
-6 0 -11 5 -11 10 0 6 2 10 4 10 3 0 8 -4 11 -10z m-30 -82 c7 -8 2 -9 -15 -4
-14 3 -31 6 -37 6 -7 0 -13 5 -13 11 0 13 50 3 65 -13z m-1425 -18 c0 -5 -4
-10 -10 -10 -5 0 -10 5 -10 10 0 6 5 10 10 10 6 0 10 -4 10 -10z m1311 -33
c-7 -7 -15 -6 -26 3 -24 20 -18 31 10 18 17 -8 22 -15 16 -21z m-41 -19 c0
-19 -2 -20 -10 -8 -13 19 -13 30 0 30 6 0 10 -10 10 -22z m145 2 c4 -6 15 -8
25 -5 10 3 21 1 25 -5 5 -8 -5 -10 -31 -8 -20 2 -39 9 -42 16 -5 15 14 16 23
2z m-140 -71 c11 -17 0 -20 -21 -4 -17 13 -17 14 -2 15 9 0 20 -5 23 -11z
m165 -4 c0 -8 5 -15 12 -15 9 0 9 -3 1 -11 -6 -6 -16 -8 -22 -5 -14 9 -14 46
-1 46 6 0 10 -7 10 -15z m-1430 -40 c-7 -9 -15 -13 -17 -11 -7 7 7 26 19 26 6
0 6 -6 -2 -15z m1493 -55 c22 -26 22 -30 -5 -30 -21 1 -68 31 -68 44 0 15 57
4 73 -14z m-1558 -74 c-14 -14 -29 -26 -32 -26 -4 0 -2 5 4 11 6 6 9 18 5 27
-4 11 -1 14 10 9 10 -3 19 1 23 11 5 10 9 13 12 5 2 -6 -8 -23 -22 -37z m-52
17 c-7 -2 -19 -2 -25 0 -7 3 -2 5 12 5 14 0 19 -2 13 -5z m-39 -100 c-10 -40
-14 -41 -14 -5 0 18 5 32 10 32 6 0 8 -11 4 -27z m1266 -709 c0 -8 -4 -12 -10
-9 -5 3 -10 10 -10 16 0 5 5 9 10 9 6 0 10 -7 10 -16z m-215 -164 c10 -11 13
-20 7 -20 -6 0 -16 9 -22 20 -6 11 -9 20 -7 20 2 0 12 -9 22 -20z m465 -36 c0
-8 -4 -12 -10 -9 -5 3 -10 13 -10 21 0 8 5 12 10 9 6 -3 10 -13 10 -21z m-401
-16 c15 -13 26 -27 26 -33 0 -16 -34 -12 -55 7 -21 20 -24 30 -13 41 10 10 13
9 42 -15z m-9 -138 c0 -5 -2 -10 -4 -10 -3 0 -8 5 -11 10 -3 6 -1 10 4 10 6 0
11 -4 11 -10z"/>
<path d="M2160 6385 c0 -11 11 -15 40 -15 29 0 40 4 40 15 0 11 -11 15 -40 15
-29 0 -40 -4 -40 -15z"/>
<path d="M2263 6360 c0 -25 2 -35 4 -22 2 12 2 32 0 45 -2 12 -4 2 -4 -23z"/>
<path d="M2154 6304 c3 -9 6 -25 6 -37 1 -17 2 -19 9 -7 5 8 12 25 15 38 6 18
4 22 -14 22 -16 0 -20 -4 -16 -16z"/>
<path d="M1850 6120 c0 -22 5 -40 10 -40 6 0 10 18 10 40 0 22 -4 40 -10 40
-5 0 -10 -18 -10 -40z"/>
<path d="M1570 5992 c0 -13 40 -43 50 -37 6 3 15 15 20 26 10 17 7 19 -30 19
-22 0 -40 -3 -40 -8z"/>
<path d="M1333 5640 c0 -25 2 -35 4 -22 2 12 2 32 0 45 -2 12 -4 2 -4 -23z"/>
<path d="M1360 5535 c0 -8 4 -15 10 -15 5 0 7 7 4 15 -4 8 -8 15 -10 15 -2 0
-4 -7 -4 -15z"/>
<path d="M2785 5299 c-4 -6 -5 -12 -2 -15 2 -3 7 2 10 11 7 17 1 20 -8 4z"/>
<path d="M2611 5074 c0 -11 3 -14 6 -6 3 7 2 16 -1 19 -3 4 -6 -2 -5 -13z"/>
<path d="M1177 5063 c-12 -11 -8 -23 8 -23 8 0 15 7 15 15 0 16 -12 20 -23 8z"/>
<path d="M1206 5024 c-9 -24 -7 -44 4 -44 6 0 10 7 10 15 0 9 7 18 15 21 21 9
19 24 -4 24 -10 0 -22 -7 -25 -16z"/>
<path d="M3523 5018 c3 -9 -2 -23 -13 -33 -21 -19 -17 -40 6 -31 8 3 14 0 14
-6 0 -13 8 -8 10 7 1 6 6 15 12 22 7 8 3 19 -13 35 -15 16 -20 18 -16 6z"/>
<path d="M4180 5021 c0 -17 236 -158 247 -147 3 2 -30 24 -72 48 -42 24 -98
57 -126 75 -27 17 -49 28 -49 24z"/>
<path d="M3450 4991 c0 -6 5 -13 10 -16 6 -3 10 1 10 9 0 9 -4 16 -10 16 -5 0
-10 -4 -10 -9z"/>
<path d="M1225 4970 c-3 -5 1 -10 10 -10 9 0 13 5 10 10 -3 6 -8 10 -10 10 -2
0 -7 -4 -10 -10z"/>
<path d="M3500 4910 c-7 -14 -7 -20 0 -20 5 0 10 5 10 11 0 6 7 9 15 5 9 -3
15 0 15 9 0 22 -28 18 -40 -5z"/>
<path d="M4330 4845 c7 -8 17 -15 22 -15 6 0 5 7 -2 15 -7 8 -17 15 -22 15 -6
0 -5 -7 2 -15z"/>
<path d="M3663 4785 c3 -21 11 -41 17 -45 6 -4 8 -14 4 -23 -7 -19 11 -24 22
-6 3 6 17 8 30 5 18 -5 22 -3 18 8 -3 8 -12 17 -20 20 -8 3 -14 11 -14 18 0
13 -21 35 -49 53 -11 6 -13 1 -8 -30z"/>
<path d="M3770 4717 c0 -21 22 -37 49 -37 24 0 24 1 -9 25 -39 29 -40 29 -40
12z"/>
<path d="M4411 4700 c15 -45 24 -54 15 -15 -4 17 -12 34 -17 40 -5 5 -4 -6 2
-25z"/>
<path d="M3190 4624 c0 -8 5 -12 10 -9 6 4 8 11 5 16 -9 14 -15 11 -15 -7z"/>
<path d="M3730 4630 c0 -5 5 -10 10 -10 6 0 10 5 10 10 0 6 -4 10 -10 10 -5 0
-10 -4 -10 -10z"/>
<path d="M4344 4628 c-2 -3 0 -16 4 -29 6 -16 11 -19 16 -10 6 9 11 8 20 -5
11 -14 12 -12 12 17 -1 29 -5 34 -24 34 -13 0 -26 -3 -28 -7z"/>
<path d="M2960 4600 c0 -13 5 -18 15 -14 8 4 15 12 15 20 0 8 -7 14 -15 14 -8
0 -15 -9 -15 -20z"/>
<path d="M2885 4554 c-7 -40 1 -58 16 -32 6 10 17 14 31 11 22 -4 23 -4 4 11
-11 9 -23 16 -28 16 -4 0 -5 7 -2 15 4 8 2 15 -4 15 -5 0 -13 -16 -17 -36z"/>
<path d="M4496 4566 c3 -9 11 -16 16 -16 13 0 5 23 -10 28 -7 2 -10 -2 -6 -12z"/>
<path d="M4540 4570 c0 -5 5 -10 11 -10 5 0 7 5 4 10 -3 6 -8 10 -11 10 -2 0
-4 -4 -4 -10z"/>
<path d="M3110 4560 c-8 -5 -12 -11 -10 -14 3 -2 14 2 24 10 22 15 10 19 -14
4z"/>
<path d="M2970 4551 c0 -6 5 -13 10 -16 6 -3 10 -2 10 4 0 5 10 12 23 14 16 3
13 5 -10 6 -18 0 -33 -3 -33 -8z"/>
<path d="M2870 4475 c0 -9 6 -12 15 -9 8 4 15 7 15 9 0 2 -7 5 -15 9 -9 3 -15
0 -15 -9z"/>
<path d="M4144 4465 c-17 -13 -17 -14 -2 -15 9 0 20 5 23 11 11 17 0 20 -21 4z"/>
<path d="M2865 4440 c-8 -13 5 -13 25 0 13 8 13 10 -2 10 -9 0 -20 -4 -23 -10z"/>
<path d="M4270 4440 c0 -12 8 -12 35 0 18 8 17 9 -7 9 -16 1 -28 -3 -28 -9z"/>
<path d="M4130 4430 c0 -5 5 -10 10 -10 6 0 10 5 10 10 0 6 -4 10 -10 10 -5 0
-10 -4 -10 -10z"/>
<path d="M4830 4416 c-19 -14 -42 -25 -51 -25 -8 -1 -26 -12 -38 -25 -32 -34
-22 -91 31 -165 18 -25 41 -21 31 7 -6 15 -5 15 10 3 16 -13 16 -15 0 -28 -13
-10 -15 -16 -6 -19 8 -4 11 -16 7 -32 l-5 -27 25 30 c20 23 23 32 13 44 -10
12 -9 12 10 1 20 -13 21 -40 2 -40 -5 0 -7 -11 -3 -25 5 -21 3 -25 -15 -25
-12 0 -20 -5 -18 -12 1 -7 -4 -12 -11 -13 -8 0 -19 -8 -26 -17 -7 -10 -21 -18
-30 -18 -12 0 -16 -7 -14 -22 2 -14 -2 -22 -9 -20 -7 1 -13 -5 -13 -14 0 -14
-3 -14 -16 -3 -13 10 -17 10 -24 -2 -8 -11 -13 -12 -30 -1 -25 15 -30 15 -30
-2 0 -16 -27 -29 -35 -16 -3 4 -26 -3 -51 -16 -25 -13 -51 -24 -58 -24 -8 0
-26 -7 -42 -14 -15 -8 -32 -12 -38 -9 -6 3 -8 3 -4 -2 10 -11 -29 -38 -42 -30
-6 3 -10 1 -10 -5 0 -8 9 -10 24 -6 14 3 26 1 28 -5 2 -7 27 -13 56 -14 29 -1
55 -5 59 -8 11 -12 25 -8 20 6 -2 7 6 18 19 24 26 12 32 5 12 -15 -10 -10 -10
-15 2 -22 28 -18 45 -10 65 32 14 28 21 36 23 24 2 -9 -2 -24 -9 -32 -6 -8 -8
-18 -4 -22 4 -4 10 -1 12 6 5 14 43 16 43 2 0 -17 18 -11 22 7 3 16 5 16 23
-2 17 -17 24 -18 42 -9 13 6 19 14 14 20 -6 5 -3 14 5 22 11 10 14 10 14 -1 0
-7 6 -22 14 -32 14 -19 15 -19 35 5 22 27 28 45 11 35 -6 -4 -9 -1 -8 6 2 7
-12 18 -30 24 -39 13 -72 40 -72 57 0 9 3 9 10 -2 8 -12 11 -12 28 3 10 9 32
18 48 19 16 1 38 8 49 15 27 18 35 16 35 -7 0 -25 -43 -44 -82 -36 -36 7 -35
-4 1 -28 16 -11 36 -31 45 -45 l17 -26 -3 38 c-1 21 2 41 8 45 6 4 15 17 18
30 13 41 55 71 93 66 41 -5 78 26 69 60 -3 13 3 34 14 51 11 17 20 36 20 43 0
7 7 20 15 28 8 9 15 32 15 51 0 34 -1 35 -18 20 -28 -26 -40 -21 -52 22 -7 28
-19 43 -41 54 -36 17 -23 33 23 28 16 -1 28 2 28 7 0 21 -75 45 -154 48 -73 4
-84 2 -116 -20z m150 -237 c0 -4 -5 -11 -10 -14 -13 -8 -42 14 -35 25 6 10 45
1 45 -11z m-360 -315 c0 -3 -7 -12 -15 -20 -12 -13 -15 -13 -15 -1 0 7 3 17 7
20 8 8 23 9 23 1z"/>
<path d="M4312 4410 c-7 -11 -8 -20 -3 -20 9 0 24 30 18 36 -1 2 -8 -6 -15
-16z"/>
<path d="M2845 4410 c-3 -5 1 -10 10 -10 9 0 13 5 10 10 -3 6 -8 10 -10 10 -2
0 -7 -4 -10 -10z"/>
<path d="M4076 4401 c-26 -5 -28 -7 -12 -20 14 -12 19 -11 35 4 13 11 27 14
40 10 12 -4 21 -2 21 4 0 12 -37 13 -84 2z"/>
<path d="M4183 4386 c-34 -16 -28 -22 17 -21 44 0 49 5 23 20 -12 7 -25 7 -40
1z"/>
<path d="M4110 4357 c12 -17 12 -20 -3 -28 -19 -11 -23 -29 -6 -29 5 0 8 4 5
9 -3 4 7 14 22 21 20 9 23 14 12 18 -8 2 -22 10 -30 16 -13 10 -13 9 0 -7z"/>
<path d="M4268 4323 c6 -2 18 -2 25 0 6 3 1 5 -13 5 -14 0 -19 -2 -12 -5z"/>
<path d="M1120 4240 c0 -47 4 -80 10 -80 6 0 10 33 10 80 0 47 -4 80 -10 80
-6 0 -10 -33 -10 -80z"/>
<path d="M4233 4313 c-15 -5 -17 -23 -4 -23 5 0 11 7 15 15 3 8 4 15 3 14 -1
0 -8 -3 -14 -6z"/>
<path d="M2710 4300 c-8 -5 -11 -12 -7 -16 4 -4 13 -2 19 4 15 15 7 24 -12 12z"/>
<path d="M2632 4283 c-9 -4 -10 -8 -2 -18 6 -7 9 -18 8 -24 -4 -14 48 -48 58
-38 4 4 0 15 -8 24 -9 10 -18 27 -19 37 -4 21 -17 27 -37 19z"/>
<path d="M2731 4253 c-1 -7 -9 -10 -18 -7 -16 5 -16 4 0 -6 21 -13 32 -8 24
12 -4 9 -6 9 -6 1z"/>
<path d="M2616 4191 c-3 -5 3 -11 14 -14 24 -6 36 8 14 17 -20 8 -22 8 -28 -3z"/>
<path d="M4160 4186 c0 -8 -10 -18 -22 -22 -18 -5 -19 -8 -5 -15 21 -12 75 30
55 43 -19 12 -28 10 -28 -6z"/>
<path d="M1121 4098 c-1 -21 4 -38 9 -38 12 0 12 27 0 55 -7 16 -9 13 -9 -17z"/>
<path d="M2590 4065 c-17 -20 7 -20 34 0 19 15 19 15 -1 15 -11 0 -26 -7 -33
-15z"/>
<path d="M4750 4049 c0 -5 5 -7 10 -4 6 3 10 8 10 11 0 2 -4 4 -10 4 -5 0 -10
-5 -10 -11z"/>
<path d="M1140 4040 c0 -5 7 -10 15 -10 8 0 15 5 15 10 0 6 -7 10 -15 10 -8 0
-15 -4 -15 -10z"/>
<path d="M4665 4020 c-3 -5 1 -10 9 -10 9 0 16 5 16 10 0 6 -4 10 -9 10 -6 0
-13 -4 -16 -10z"/>
<path d="M3919 3871 c-24 -20 -24 -20 -4 -34 13 -10 22 -12 26 -5 4 6 17 8 29
5 12 -3 31 0 42 6 15 9 22 9 25 1 2 -6 15 -9 28 -6 18 3 25 0 25 -12 0 -19 21
-21 38 -4 21 21 14 25 -45 33 -32 4 -65 10 -73 15 -39 19 -68 20 -91 1z"/>
<path d="M4160 3829 c-13 -24 17 -51 31 -27 5 10 17 14 29 11 15 -4 20 0 20
16 0 17 -6 20 -36 19 -22 -1 -38 -8 -44 -19z"/>
<path d="M4288 3838 c-27 -9 -41 -48 -18 -48 6 0 10 8 10 17 0 13 3 14 12 5
17 -17 25 -15 31 8 7 26 -1 30 -35 18z"/>
<path d="M2700 3810 c0 -5 5 -10 10 -10 6 0 10 5 10 10 0 6 -4 10 -10 10 -5 0
-10 -4 -10 -10z"/>
<path d="M1280 3669 c0 -35 4 -49 12 -47 17 6 27 49 17 76 -14 38 -29 24 -29
-29z"/>
<path d="M1360 3623 c0 -41 3 -54 10 -43 13 20 13 100 0 100 -6 0 -10 -26 -10
-57z"/>
<path d="M1280 3549 c0 -43 3 -50 17 -47 23 4 28 32 13 69 -18 44 -30 35 -30
-22z"/>
<path d="M2660 3542 c0 -5 7 -13 16 -16 10 -4 14 -1 12 6 -5 15 -28 23 -28 10z"/>
<path d="M1360 3480 c0 -22 5 -40 10 -40 6 0 10 18 10 40 0 22 -4 40 -10 40
-5 0 -10 -18 -10 -40z"/>
<path d="M1280 3465 c0 -10 7 -15 18 -13 21 4 19 22 -2 26 -10 2 -16 -3 -16
-13z"/>
<path d="M1360 3320 c0 -22 5 -40 10 -40 6 0 10 18 10 40 0 22 -4 40 -10 40
-5 0 -10 -18 -10 -40z"/>
<path d="M2835 3190 c3 -5 8 -10 11 -10 2 0 4 5 4 10 0 6 -5 10 -11 10 -5 0
-7 -4 -4 -10z"/>
<path d="M1380 3112 c0 -15 18 -34 29 -31 7 3 3 11 -9 21 -11 10 -20 14 -20
10z"/>
<path d="M4137 3023 c-6 -12 1 -74 14 -122 14 -49 3 -112 -33 -191 -38 -83
-35 -114 18 -215 48 -90 48 -90 47 -182 -1 -70 -5 -97 -17 -109 -9 -8 -16 -20
-16 -25 0 -5 -16 -25 -35 -43 -46 -45 -45 -61 8 -78 60 -19 62 -51 8 -122 -58
-74 -51 -128 19 -164 67 -34 78 -161 24 -268 -15 -30 -24 -57 -21 -61 4 -3 7
2 7 11 0 10 6 16 13 14 12 -5 23 -57 31 -157 5 -51 14 -84 37 -136 5 -11 8
-29 8 -40 -1 -11 2 -67 6 -125 5 -72 3 -119 -5 -149 -6 -25 -14 -61 -16 -80
-2 -20 -5 -43 -7 -51 -14 -58 -21 -83 -40 -145 -12 -38 -22 -79 -23 -90 -1
-11 -5 -43 -9 -72 -6 -37 -3 -66 8 -100 8 -26 19 -66 23 -88 3 -22 11 -48 16
-58 6 -11 5 -17 -3 -17 -8 0 -8 -4 -1 -12 5 -7 9 -33 9 -57 -2 -40 -5 -45 -32
-53 -21 -6 -41 -3 -68 9 -35 15 -38 15 -55 -1 -9 -9 -26 -23 -37 -31 -17 -12
68 -14 614 -15 349 0 632 3 628 6 -4 4 -1 14 6 22 10 12 9 16 -1 20 -9 3 -10
7 -2 17 11 14 1 42 -27 73 -17 18 -16 25 2 18 19 -7 19 5 0 30 -17 23 -19 38
-3 28 8 -5 9 -2 5 9 -4 10 -10 24 -13 32 -4 9 -3 15 2 14 21 -4 24 2 10 17
-20 20 -20 34 0 34 14 0 14 1 0 16 -20 19 -21 35 -2 28 8 -3 18 -18 21 -32 7
-31 112 -117 177 -145 24 -10 45 -23 49 -28 3 -6 17 -16 29 -22 13 -7 39 -40
58 -74 l34 -63 319 0 c175 0 319 3 319 8 0 4 -24 18 -53 32 -64 30 -122 82
-148 133 -12 22 -31 42 -47 48 -78 28 -122 68 -122 111 0 7 -9 31 -21 52 l-21
39 32 -7 c18 -3 38 -6 45 -6 8 0 17 -11 22 -24 10 -30 83 -109 121 -131 16
-10 36 -29 45 -44 9 -14 35 -46 59 -71 55 -58 108 -123 108 -132 0 -5 25 -8
56 -8 l56 0 -17 26 c-9 14 -14 28 -11 32 8 7 35 -28 36 -45 0 -7 5 -13 10 -13
6 0 10 37 10 90 0 70 -3 90 -14 90 -7 0 -19 7 -26 15 -7 9 -19 14 -26 11 -8
-3 -19 4 -25 16 -16 30 -91 126 -142 183 -35 38 -43 53 -36 67 13 25 29 32 29
13 0 -9 5 -13 10 -10 6 3 10 19 10 34 0 34 16 51 49 51 36 0 71 11 71 21 0 5
-8 9 -17 9 -13 1 -10 5 10 16 18 10 27 23 27 38 0 14 6 27 13 30 8 3 6 9 -8
21 -26 21 -49 15 -53 -13 -2 -12 -7 -22 -12 -22 -5 0 -16 -7 -24 -16 -15 -14
-100 -43 -141 -47 -14 -2 -21 6 -25 28 -4 20 -8 26 -13 17 -5 -7 -5 -21 -2
-32 5 -16 2 -20 -14 -20 -12 0 -21 5 -21 11 0 5 -4 7 -10 4 -5 -3 -10 -17 -10
-30 0 -23 -17 -35 -50 -35 -27 0 -33 40 -10 65 11 12 20 25 20 30 0 4 16 28
36 52 20 24 34 46 31 49 -9 9 -57 -8 -51 -18 9 -14 -31 -48 -56 -48 -13 0 -24
-9 -30 -25 -5 -14 -16 -28 -25 -31 -8 -3 -24 -26 -37 -50 -12 -24 -25 -44 -30
-44 -18 0 -20 34 -9 172 15 194 21 230 37 249 9 9 12 24 8 34 -5 13 -4 16 4
11 7 -4 12 -15 12 -25 0 -12 10 -20 29 -24 28 -6 91 -57 71 -57 -22 0 -8 -36
19 -51 37 -21 62 -9 44 21 -12 17 -10 20 12 26 14 3 25 12 25 20 0 14 -23 22
-80 26 l-35 3 3 53 c4 47 1 55 -26 80 -16 15 -36 41 -45 58 -9 17 -23 37 -32
44 -10 8 -21 24 -25 36 -13 33 -74 58 -113 45 -55 -18 -61 -39 -59 -198 1 -79
0 -143 -3 -143 -2 0 -13 16 -25 36 -22 35 -41 42 -21 7 16 -28 101 -346 108
-403 4 -34 2 -50 -6 -50 -6 0 -11 5 -11 12 0 6 -12 1 -27 -13 -48 -43 -101
-79 -117 -79 -9 0 -16 -4 -16 -10 0 -21 -38 -9 -70 23 -34 33 -83 126 -85 162
-3 47 -6 55 -16 55 -26 0 -39 29 -33 69 4 26 3 41 -4 41 -14 0 -33 -59 -35
-110 -1 -23 -3 -37 -5 -31 -2 6 -10 11 -17 11 -20 0 -48 42 -34 51 8 5 8 13
-1 29 -11 20 -10 21 12 15 l23 -7 -24 26 c-20 22 -22 26 -8 26 16 0 16 2 1 25
-15 22 -15 25 -1 25 9 0 19 -4 22 -10 3 -5 12 -10 18 -10 7 0 0 10 -15 21 -27
20 -37 39 -20 39 5 0 18 -9 30 -20 31 -29 56 -26 50 5 -3 14 -2 25 2 25 10 0
45 -53 42 -62 -1 -5 2 -8 7 -8 5 0 13 -9 16 -20 3 -11 13 -20 20 -20 15 0 40
-38 31 -47 -3 -3 -13 0 -22 8 -16 13 -17 11 -11 -21 15 -81 55 -213 67 -220
18 -11 38 -2 45 20 3 11 24 23 51 31 34 10 44 18 41 31 -3 11 0 15 9 11 9 -3
14 8 16 39 3 39 -7 78 -41 163 -6 17 -19 50 -28 75 -9 25 -24 56 -33 70 -9 14
-28 48 -41 75 -13 28 -31 61 -40 75 -9 14 -27 44 -40 67 -42 75 -100 148 -136
172 -20 12 -32 28 -30 35 3 8 0 19 -6 25 -8 8 -8 11 0 11 14 0 35 -25 27 -33
-5 -4 48 -57 106 -107 46 -39 58 -50 97 -97 36 -42 47 -50 70 -46 66 10 73 13
73 34 0 12 11 51 24 88 13 36 24 68 24 71 2 15 17 46 25 52 6 3 18 1 27 -4 10
-6 24 -9 33 -5 12 5 9 19 -19 89 -29 72 -40 108 -43 140 -1 4 -14 22 -30 40
-15 18 -32 44 -36 58 -17 53 -75 130 -107 143 -12 4 -14 1 -10 -15 4 -18 2
-20 -21 -14 -20 5 -27 3 -27 -8 0 -37 -50 -30 -68 10 -16 34 -16 34 13 34 23
0 25 3 22 38 -4 34 -7 38 -48 50 -63 19 -162 69 -147 75 9 4 8 6 -3 6 -17 1
-100 71 -84 71 6 0 27 -11 47 -25 l38 -25 42 26 c83 52 123 95 126 136 3 44
-26 112 -71 162 -38 41 -212 131 -275 141 -52 8 -188 66 -302 129 -47 26 -112
60 -146 76 -36 17 -72 43 -88 65 -48 62 -350 314 -359 298z m1098 -1103 c8
-13 -5 -13 -25 0 -13 8 -13 10 2 10 9 0 20 -4 23 -10z m1 -89 c-8 -13 21 -34
35 -25 8 4 9 3 5 -4 -4 -7 -1 -12 9 -12 8 0 18 -7 21 -15 4 -8 12 -15 19 -15
7 0 15 -7 19 -15 3 -8 28 -31 56 -51 27 -20 50 -41 50 -48 0 -7 11 -22 25 -34
14 -12 25 -28 25 -35 0 -19 -29 -57 -44 -57 -8 0 -16 -9 -19 -20 -3 -13 0 -20
9 -20 8 0 24 9 36 20 12 11 28 20 35 20 7 0 13 4 13 10 0 13 32 50 43 50 4 0
7 -25 5 -56 -3 -55 -4 -57 -47 -81 -36 -20 -53 -23 -94 -19 -57 5 -85 23 -50
32 21 6 40 33 25 35 -4 0 -28 2 -54 4 -63 3 -143 43 -144 71 -1 12 -4 26 -8
33 -5 8 -1 8 17 0 16 -7 28 -23 32 -43 4 -17 9 -25 12 -19 3 10 10 9 27 -2 21
-14 24 -13 44 10 26 30 27 34 6 49 -14 11 -14 16 3 51 14 30 15 39 5 43 -7 2
-18 15 -23 29 l-9 25 -23 -24 c-12 -13 -33 -31 -46 -41 -14 -9 -21 -20 -17
-24 4 -4 11 -1 17 7 8 13 10 13 19 0 5 -8 10 -19 10 -25 0 -6 -4 -5 -8 1 -4 6
-18 11 -31 10 -30 -1 -37 16 -16 38 15 14 15 16 1 16 -17 0 -18 1 -20 75 -1
59 0 65 20 65 8 0 13 -4 10 -9z m-189 -153 c-3 -7 -5 -2 -5 12 0 14 2 19 5 13
2 -7 2 -19 0 -25z m434 3 c15 -14 17 -21 8 -26 -11 -8 -39 19 -39 37 0 13 9 9
31 -11z m-231 -73 c0 -14 -16 -9 -36 13 -19 21 -19 21 9 8 15 -7 27 -16 27
-21z m-4 -93 c16 -12 16 -14 3 -15 -9 0 -22 7 -29 15 -16 19 0 19 26 0z m-159
-57 c-2 -13 -4 -3 -4 22 0 25 2 35 4 23 2 -13 2 -33 0 -45z m154 15 c13 -17
13 -17 -6 -3 -11 8 -22 16 -24 17 -2 2 0 3 6 3 6 0 17 -8 24 -17z m4 -35 c6
-4 2 -8 -7 -8 -10 0 -18 7 -18 17 0 9 3 12 8 7 4 -5 12 -12 17 -16z m385 -10
c0 -6 -7 -8 -15 -4 -9 3 -15 0 -15 -9 0 -9 10 -15 24 -15 19 0 24 -5 22 -25
-1 -33 -9 -32 -39 7 -21 26 -23 35 -14 55 8 18 13 20 24 12 7 -6 13 -16 13
-21z m-385 -28 c3 -5 2 -10 -4 -10 -5 0 -13 5 -16 10 -3 6 -2 10 4 10 5 0 13
-4 16 -10z m-158 -32 c-3 -7 -5 -2 -5 12 0 14 2 19 5 13 2 -7 2 -19 0 -25z
m13 -115 c0 -33 -3 -44 -11 -36 -9 9 -3 83 7 83 2 0 4 -21 4 -47z m170 17 c0
-14 -14 -12 -28 2 -19 19 -14 30 8 18 11 -6 20 -15 20 -20z m0 -42 c0 -12 -14
-10 -28 4 -19 19 -14 29 8 16 11 -7 20 -16 20 -20z m-10 -23 c7 -9 10 -18 7
-22 -8 -7 -37 15 -37 28 0 14 16 11 30 -6z m10 -57 c0 -12 -14 -10 -28 4 -19
19 -14 29 8 16 11 -7 20 -16 20 -20z m-160 -223 c-1 -11 -1 -37 -2 -57 0 -47
-15 -50 -23 -5 -10 60 -7 264 5 287 4 7 22 -199 20 -225z m148 203 c19 -19 14
-30 -8 -18 -11 6 -20 15 -20 20 0 14 14 12 28 -2z m2 -43 c7 -9 10 -18 7 -22
-8 -7 -37 15 -37 28 0 14 16 11 30 -6z m0 -40 c7 -9 10 -18 7 -22 -8 -7 -37
15 -37 28 0 14 16 11 30 -6z m10 -58 c0 -5 -7 -6 -16 -3 -9 3 -18 6 -20 6 -2
0 -4 7 -4 15 0 13 3 13 20 3 11 -7 20 -17 20 -21z m-17 -21 c19 -15 23 -40 5
-34 -14 5 -43 48 -32 48 5 0 17 -7 27 -14z m6 -52 c24 -30 24 -33 11 -54 -7
-12 -12 -12 -29 4 -29 26 -26 40 4 20 14 -9 25 -13 25 -9 0 4 -11 16 -25 27
-14 11 -25 24 -25 29 0 17 19 9 39 -17z m221 -234 c5 0 12 -9 15 -20 3 -11 13
-20 21 -20 8 0 13 -4 10 -9 -9 -13 -46 -1 -46 15 0 13 -12 18 -32 15 -5 0 -8
6 -8 15 0 11 5 14 16 10 9 -3 19 -6 24 -6z m-210 -102 c0 -5 -9 -6 -20 -3 -11
4 -20 2 -20 -4 0 -6 4 -11 10 -11 5 0 14 -9 21 -21 10 -19 8 -20 -10 -14 -12
4 -21 2 -21 -4 0 -6 6 -11 14 -11 8 0 16 -7 20 -15 8 -21 -17 -19 -37 3 -13
15 -14 21 -4 31 9 11 9 14 0 18 -7 3 -13 11 -13 18 0 7 6 15 13 18 9 3 9 7 0
19 -7 8 -10 18 -6 22 7 7 53 -32 53 -46z m639 -30 c-9 -16 -14 -19 -17 -9 -2
7 2 17 9 22 20 13 21 11 8 -13z m-14 -58 c3 -5 1 -10 -4 -10 -6 0 -11 5 -11
10 0 6 2 10 4 10 3 0 8 -4 11 -10z m-649 -28 c6 -4 13 -15 17 -24 11 -29 -14
-20 -42 15 -11 14 -11 17 0 17 8 0 19 -4 25 -8z m-1 -52 c10 -11 15 -23 12
-27 -8 -7 -47 25 -47 39 0 14 16 9 35 -12z m1094 -336 c-7 -8 -13 -13 -14 -12
-1 2 -9 18 -18 36 l-16 32 30 -21 c24 -17 28 -24 18 -35z m-2146 -51 c-7 -2
-19 -2 -25 0 -7 3 -2 5 12 5 14 0 19 -2 13 -5z"/>
<path d="M2935 2719 c-11 -17 1 -21 15 -4 8 9 8 15 2 15 -6 0 -14 -5 -17 -11z"/>
<path d="M2960 2450 c0 -28 2 -31 15 -20 12 10 13 16 3 29 -7 9 -14 18 -15 20
-2 2 -3 -10 -3 -29z"/>
<path d="M2730 2350 c0 -5 6 -10 14 -10 8 0 18 5 21 10 3 6 -3 10 -14 10 -12
0 -21 -4 -21 -10z"/>
<path d="M2660 1935 c0 -8 2 -15 4 -15 2 0 6 7 10 15 3 8 1 15 -4 15 -6 0 -10
-7 -10 -15z"/>
<path d="M3767 1682 c-10 -10 -17 -24 -17 -30 0 -6 -16 -24 -35 -39 -19 -15
-35 -35 -35 -43 0 -14 119 107 120 123 0 13 -17 7 -33 -11z"/>
<path d="M2402 1673 c2 -10 11 -19 21 -21 21 -4 13 24 -9 32 -11 4 -14 1 -12
-11z"/>
<path d="M2500 1656 c0 -8 7 -16 15 -20 17 -6 18 -4 9 18 -8 20 -24 21 -24 2z"/>
<path d="M3640 1539 c0 -5 5 -7 10 -4 6 3 10 8 10 11 0 2 -4 4 -10 4 -5 0 -10
-5 -10 -11z"/>
<path d="M3596 1504 c-4 -11 -1 -14 11 -12 9 2 18 9 21 16 6 18 -25 15 -32 -4z"/>
<path d="M3565 1470 c-3 -5 -1 -10 4 -10 6 0 11 5 11 10 0 6 -2 10 -4 10 -3 0
-8 -4 -11 -10z"/>
<path d="M3504 1423 c-4 -13 -12 -23 -19 -23 -7 0 -32 -19 -56 -43 -24 -24
-52 -46 -61 -50 -10 -3 -18 -16 -18 -29 l1 -23 20 25 c12 14 31 32 44 40 37
25 135 112 135 121 0 19 -41 3 -46 -18z"/>
<path d="M3305 1227 c-4 -10 -5 -21 -1 -24 10 -10 18 4 13 24 -4 17 -4 17 -12
0z"/>
<path d="M3312 1015 c0 -16 2 -22 5 -12 2 9 2 23 0 30 -3 6 -5 -1 -5 -18z"/>
<path d="M6040 749 c0 -5 5 -7 10 -4 6 3 10 8 10 11 0 2 -4 4 -10 4 -5 0 -10
-5 -10 -11z"/>
<path d="M6123 711 c-41 -44 -57 -92 -30 -90 25 1 82 26 81 35 0 5 7 8 18 6
10 -2 18 3 18 10 0 7 3 23 6 35 5 17 0 25 -23 36 -27 14 -29 14 -70 -32z"/>
<path d="M6162 428 c5 -15 28 -23 28 -10 0 5 -7 13 -16 16 -10 4 -14 1 -12 -6z"/>
<path d="M5940 286 c-7 -9 -3 -16 14 -26 31 -16 64 -6 47 14 -17 20 -49 26
-61 12z"/>
<path d="M6370 246 c0 -2 7 -7 16 -10 8 -3 12 -2 9 4 -6 10 -25 14 -25 6z"/>
<path d="M5274 69 c-3 -6 -1 -16 5 -22 8 -8 11 -7 11 5 0 9 10 19 23 21 19 4
19 4 -5 6 -15 0 -30 -4 -34 -10z"/>
<path d="M5425 10 c-3 -5 3 -10 15 -10 12 0 18 5 15 10 -3 6 -10 10 -15 10 -5
0 -12 -4 -15 -10z"/>
</g>
</svg>
